<?xml version="1.0" encoding="UTF-8"?>
<svg id="Layer_3" data-name="Layer 3" xmlns="http://www.w3.org/2000/svg" xmlns:xlink="http://www.w3.org/1999/xlink" viewBox="0 0 35 30.37">
  <defs>
    <style>
      .cls-1, .cls-2 {
        fill: none;
      }

      .cls-3 {
        fill: #eee5e5;
      }

      .cls-4 {
        fill: #f0e7e7;
      }

      .cls-5 {
        fill: #e9bbba;
      }

      .cls-6 {
        fill: #803d3c;
      }

      .cls-7 {
        fill: #95efea;
      }

      .cls-8 {
        fill: #985857;
      }

      .cls-9 {
        fill: #a09494;
      }

      .cls-10 {
        fill: #8d2a29;
      }

      .cls-11 {
        fill: #c27776;
      }

      .cls-12 {
        fill: #b8908f;
      }

      .cls-13 {
        fill: #b88888;
      }

      .cls-14 {
        fill: #ae8281;
      }

      .cls-15 {
        fill: #aa7575;
      }

      .cls-16 {
        fill: #bc9a9a;
      }

      .cls-17 {
        fill: #becdcc;
      }

      .cls-18 {
        fill: #d4bcbc;
      }

      .cls-19 {
        fill: #c6a8a7;
      }

      .cls-20 {
        fill: #dba7a7;
      }

      .cls-21 {
        fill: #d69999;
      }

      .cls-22 {
        fill: #9c6a6a;
      }

      .cls-23 {
        fill: #a37e7d;
      }

      .cls-2 {
        clip-path: url(#clippath);
      }
    </style>
    <clipPath id="clippath">
      <rect class="cls-1" x="4.79" y="2.21" width="27.12" height="25.69"/>
    </clipPath>
  </defs>
  <g class="cls-2">
    <g>
      <circle class="cls-7" cx="19.39" cy="13.63" r="11.66"/>
      <g>
        <path class="cls-4" d="m14.2,18.26c0,.08-.02.16.04.27v-.27c0-.08,0-.16-.01-.24,0-.1,0-.2,0-.31-.04-.44-.19-.83-.51-1.14-.27-.27-.59-.48-.94-.64-.26-.11-.53-.23-.8-.32-.45-.16-.88-.37-1.31-.58-.25-.13-.5-.24-.78-.27-.1-.04-.19-.05-.29,0-.17-.01-.33.04-.48.11-.34.16-.54.44-.59.8-.03.22,0,.44.01.67.02.25.07.51.09.76.04.54-.04,1.07-.19,1.58-.14.47-.31.94-.47,1.41-.09.27-.2.54-.24.83-.08.67.31,1.23,1.01,1.35.05,0,.09.01.14.02.1,0,.2,0,.3,0,.04,0,.08-.01.12-.02.43-.05.83-.19,1.22-.38.54-.27.99-.66,1.4-1.09.23-.24.44-.49.68-.72.31-.32.69-.53,1.15-.55.19,0,.39-.04.58-.09.77-.2,1.43-.6,1.95-1.21.72-.83,1.06-1.8.93-2.91-.09-.73-.4-1.36-.94-1.86-.5-.47-1.08-.83-1.72-1.09-.3-.13-.62-.22-.93-.33-.76-.28-1.48-.65-2.15-1.1-.1-.06-.13-.14-.14-.25,0-.35.02-.71.11-1.05.04.07.08.13.11.2.16.29.37.53.64.72.21.15.43.29.65.43.3.19.62.32.97.37.15.02.26-.04.28-.2.02-.14.03-.28.02-.41,0-.1,0-.2-.1-.27-.02-.07-.04-.13-.05-.2-.02-.07-.03-.14-.05-.21-.12-.42-.28-.82-.54-1.17-.27-.35-.6-.61-1.06-.64-.04-.02-.08-.03-.12-.05.3-.42.65-.78,1.04-1.11.42-.35.88-.62,1.38-.81.48-.18.97-.25,1.48-.28.07,0,.13-.01.2-.02h.15s-.02.08-.03.11c-.12.36-.14.73-.14,1.1,0,.4.06.79.15,1.19.17.82.46,1.61.8,2.37.26.59.58,1.15.8,1.76.07.21.13.41.2.62,0,0,0,.02,0,.03,0,.01,0,.03,0,.04.06.23.11.47.17.7.03.12.06.23.07.35.03.25.06.5.09.76.02.21.05.41.04.62,0,.24-.02.49-.05.73-.02.22-.05.44-.11.65-.08.31-.17.62-.28.92-.12.35-.29.68-.48,1-.17.29-.35.57-.57.82-.13.15-.27.3-.42.42-.39.29-.79.57-1.19.85-.4.28-.77.59-1.1.95-.1.11-.19.24-.24.39-.01.04-.01.08,0,.12.04.12.15.17.28.13.43-.13.8-.37,1.15-.63.3-.23.6-.46.91-.68.13-.09.27-.16.41-.23.05-.03.11-.07.16-.1.25-.16.51-.31.75-.48.5-.34.98-.69,1.39-1.13.17-.18.32-.38.4-.62.08-.24.16-.48.22-.72.12-.53.22-1.06.34-1.59.16-.72.4-1.41.78-2.04.24-.4.41-.84.51-1.3.03-.15.05-.31.07-.47.03-.16.06-.33.07-.49.03-.6.02-1.21-.06-1.8-.07-.59-.2-1.18-.35-1.76-.16-.58-.32-1.15-.61-1.68-.16-.3-.36-.58-.61-.81-.5-.46-1.09-.67-1.76-.7-.04,0-.08-.02-.12-.02-.2,0-.4,0-.61,0-.05,0-.1.01-.14.02-.06,0-.13,0-.19,0-.07,0-.13.01-.2.02-.05,0-.09,0-.14,0-.06,0-.11.01-.17.02-.04,0-.07,0-.11,0-.07,0-.13.01-.2.02-.04,0-.07,0-.11,0-.07,0-.13.01-.2.02-.09.01-.17.03-.26.03-.27,0-.54.06-.81.13-.92.24-1.69.73-2.36,1.39-.54.53-.96,1.13-1.29,1.81-.23.46-.35.95-.35,1.46,0,.34.03.67.11,1.01.25,1.09.78,2,1.69,2.67.41.3.87.48,1.37.53.05,0,.1.03.15.02.17,0,.35-.02.52-.03.05,0,.11.02.16.03.12.02.25.02.37.05.23.06.45.13.68.2.15.05.3.13.42.23.07.06.14.1.21.15.02.13.05.26.06.39.03.47-.06.92-.25,1.36-.29.66-.73,1.19-1.34,1.57-.48.31-1.02.44-1.58.49-.28.03-.55.11-.79.26-.28.18-.53.4-.75.64-.26.28-.5.56-.77.83-.24.25-.52.47-.83.63,0-.02,0-.04.01-.05.18-.29.29-.62.38-.95.13-.44.22-.89.42-1.31.12-.26.27-.5.46-.71.16-.17.35-.29.56-.38.42-.19.78-.46,1.08-.81.14-.16.22-.33.22-.54.2.12.34.31.45.51.16.29.22.61.24.94,0,.08,0,.17,0,.25Z"/>
        <path class="cls-6" d="m10.68,27.44c.12,0,.24,0,.36,0,.09,0,.19-.01.28-.02.14-.02.27-.03.41-.06.37-.06.73-.17,1.07-.32.45-.2.88-.44,1.27-.74.86-.64,1.65-1.36,2.4-2.12,1.26-1.28,2.36-2.69,3.4-4.14.57-.79.99-1.65,1.33-2.57.3-.81.52-1.64.68-2.49.09-.5.17-1,.23-1.5.07-.6.11-1.2.13-1.8.02-.64.01-1.27-.02-1.91-.01-.27-.05-.53-.08-.8-.02-.18-.03-.37-.06-.55-.06-.45-.13-.9-.25-1.34-.18-.65-.43-1.26-.8-1.82-.51-.75-1.18-1.3-2.01-1.66-.31-.13-.62-.24-.95-.32-.22-.05-.45-.09-.68-.13-.25-.04-.5-.08-.74-.12-.08,0-.17-.01-.25-.02-.03,0-.05,0-.08,0-.02,0-.04-.02-.06-.02-.2,0-.39,0-.59,0-.03,0-.05.01-.08.02-.34.02-.68.06-1.01.13-1.23.26-2.32.8-3.28,1.62-.42.36-.78.8-1.09,1.26-.12.18-.24.36-.37.54-.01-.01-.02-.02-.03-.03.26-.51.56-1.01.92-1.46.65-.82,1.48-1.41,2.41-1.86.56-.27,1.14-.46,1.75-.58.15-.03.31-.04.46-.06.08-.01.15-.02.23-.03.08,0,.15-.01.23-.02.06,0,.13,0,.19,0,.17,0,.34,0,.51,0,.06,0,.13,0,.19,0,.09,0,.17.01.26.02.2.03.41.06.61.09.24.04.48.07.71.12.16.03.32.09.47.13.2.06.41.12.6.2,1.11.46,1.96,1.22,2.53,2.27.16.3.3.6.43.91.08.2.13.42.2.62.11.29.17.6.22.9.03.18.05.35.07.53.03.19.06.37.09.56.07.59.12,1.18.11,1.78,0,.64-.01,1.28-.04,1.92-.02.44-.08.88-.13,1.31-.03.23-.07.45-.11.68-.06.33-.11.66-.18.98-.05.24-.12.47-.18.71-.07.27-.14.55-.23.81-.14.42-.3.84-.47,1.26-.39.93-.93,1.76-1.54,2.55-.63.81-1.27,1.62-1.96,2.38-.61.67-1.25,1.32-1.94,1.92-.58.51-1.18.99-1.82,1.43-.53.36-1.09.66-1.71.86-.3.1-.61.17-.93.21-.06,0-.13.02-.19.03-.07,0-.15,0-.22,0-.15,0-.3,0-.45,0-.08,0-.17,0-.25,0-.24-.04-.49-.08-.73-.13-.27-.05-.54-.15-.79-.27-.42-.18-.82-.4-1.13-.76,0,0,.02-.02.03-.02,0,0,0,0,0,0,.02.02.04.04.06.06.19.14.38.28.59.39.24.12.5.2.76.28.25.08.5.13.76.17.05,0,.11,0,.17,0,.09,0,.19.01.28.02Z"/>
        <path class="cls-10" d="m6.72,23.87c0-.18.02-.35.08-.52.04-.11.09-.2.18-.28.18-.17.31-.17.52-.1.01,0,.02.01.04.02.16.04.2.16.22.3.05.25.03.5.02.75,0,.14-.04.28-.06.42-.04.29-.06.58-.03.87.03.28.08.55.18.81.03.08.06.16.08.23-.02-.02-.04-.03-.06-.05,0,0-.02.01-.03.02-.11-.16-.22-.31-.32-.47-.06-.11-.11-.22-.16-.34-.06-.28-.19-.54-.31-.8-.03-.06-.07-.12-.1-.18-.08-.18-.16-.35-.23-.53-.02-.05-.01-.11-.02-.16Z"/>
        <path class="cls-3" d="m6.97,24.57c.04.06.08.12.1.18.12.26.25.52.31.8-.03-.03-.07-.06-.08-.1-.11-.25-.22-.5-.32-.75-.02-.04,0-.08-.01-.13Z"/>
        <path class="cls-8" d="m7.86,26.36s.02-.02.03-.02c.02.01.04.03.06.05.04.05.08.09.11.14,0,0-.02.02-.03.02-.06-.06-.12-.12-.17-.19Z"/>
        <path class="cls-22" d="m9.81,6.52s.02.02.03.03c-.04.06-.08.13-.11.19,0-.01-.02-.02-.03-.03.04-.07.07-.13.11-.2Z"/>
        <path class="cls-5" d="m16.51,2.5c-.17,0-.34,0-.51,0,.17,0,.34,0,.51,0Z"/>
        <path class="cls-9" d="m10.93,27.7c.15,0,.3,0,.45,0,0,0,0,.01,0,.02-.15,0-.29,0-.44,0,0,0,0-.01,0-.02Z"/>
        <path class="cls-12" d="m9.7,6.72s.02.02.03.03c-.04.05-.07.1-.11.14.03-.06.05-.12.08-.17Z"/>
        <path class="cls-17" d="m10.93,27.7s0,.01,0,.02c-.08,0-.17-.02-.25-.02.08,0,.17,0,.25,0Z"/>
        <path class="cls-21" d="m16.96,2.53c-.09,0-.17-.01-.26-.02.09,0,.17.01.26.02Z"/>
        <path class="cls-17" d="m11.37,27.72s0-.01,0-.02c.07,0,.15,0,.22,0-.08,0-.15.02-.23.02Z"/>
        <path class="cls-20" d="m15.81,2.51c-.08,0-.15.01-.23.02.08,0,.15-.01.23-.02Z"/>
        <path class="cls-12" d="m9.62,6.89s-.01.02-.02.02c0,0,.01-.02.02-.02Z"/>
        <path class="cls-10" d="m18.19,13.14s0-.02,0-.03c-.03-.17-.07-.34-.1-.51-.01-.05-.04-.09-.05-.14-.1-.29-.19-.59-.29-.88-.15-.4-.32-.8-.47-1.21-.2-.57-.37-1.15-.46-1.76-.06-.38-.1-.76-.12-1.14-.01-.24.02-.48.05-.72.04-.26.12-.51.25-.75.03-.06.07-.1.15-.1.14,0,.29-.02.43-.03.11,0,.22,0,.34,0,.19.02.38.03.57.06.55.08.99.35,1.33.78.26.33.44.7.58,1.09.21.6.37,1.21.5,1.82.12.57.2,1.14.22,1.72.03.51-.01,1.02-.11,1.52-.09.47-.25.92-.48,1.35-.13.25-.26.5-.36.77-.29.72-.4,1.48-.52,2.24-.06.33-.11.67-.17,1-.05.24-.1.49-.24.69-.12.17-.25.34-.39.49-.41.45-.9.82-1.38,1.19-.15.11-.3.23-.45.35-.07,0-.11.03-.12.1-.14.08-.28.14-.41.23-.31.22-.61.46-.91.68-.35.26-.72.51-1.15.63-.13.04-.23-.01-.28-.13-.01-.04,0-.08,0-.12.04-.15.13-.28.24-.39.33-.36.7-.67,1.1-.95.4-.28.8-.56,1.19-.85.16-.12.29-.27.42-.42.22-.25.4-.53.57-.82.19-.32.35-.65.48-1,.11-.3.2-.61.28-.92.05-.21.08-.44.11-.65.03-.24.05-.49.05-.73,0-.21-.02-.41-.04-.62-.03-.25-.05-.5-.09-.76-.02-.12-.04-.24-.07-.35-.05-.23-.11-.47-.17-.7,0-.01,0-.03,0-.04Z"/>
        <path class="cls-8" d="m17.57,5.88c-.14,0-.29.02-.43.03-.08,0-.11.04-.15.1-.13.23-.22.48-.25.75-.03.24-.07.48-.05.72.02.38.06.77.12,1.14.09.6.26,1.18.46,1.76.14.41.32.8.47,1.21.11.29.2.59.29.88-.01.01-.03.02-.04.04-.22-.61-.54-1.17-.8-1.76-.34-.76-.63-1.55-.8-2.37-.08-.39-.14-.79-.15-1.19,0-.37.02-.74.14-1.1.01-.03.02-.06.03-.11-.05,0-.1,0-.15,0-.07,0-.13.01-.2.02-.51.03-1,.1-1.48.28-.51.19-.97.47-1.38.81-.39.33-.75.69-1.04,1.11-.03.03-.02.05.01.05.03,0,.07,0,.11,0,.46.03.8.28,1.06.64.26.35.43.75.54,1.17.02.07.03.14.05.21-.02,0-.03,0-.05,0-.11-.21-.2-.43-.32-.63-.16-.27-.35-.52-.61-.71-.33-.25-.69-.31-1.06-.09-.04.02-.07.04-.11.05-.06.01-.08.05-.11.09-.11.21-.2.42-.26.64-.09.34-.12.69-.11,1.05,0,.11.04.19.14.25.68.45,1.39.82,2.15,1.1.31.11.63.21.93.33.64.26,1.21.62,1.72,1.09.54.5.85,1.13.94,1.86.13,1.11-.21,2.07-.93,2.91-.52.6-1.17,1.01-1.95,1.21-.19.05-.38.08-.58.09-.46.02-.83.23-1.15.55-.23.24-.45.48-.68.72-.41.44-.86.82-1.4,1.09-.38.19-.79.33-1.22.38-.04,0-.08.01-.12.02-.1,0-.2,0-.3,0-.05,0-.09-.01-.14-.02-.7-.11-1.09-.68-1.01-1.35.03-.29.15-.55.24-.83.16-.47.33-.94.47-1.41.16-.51.23-1.04.19-1.58-.02-.25-.07-.51-.09-.76-.02-.22-.04-.45-.01-.67.05-.36.25-.64.59-.8.15-.07.31-.12.48-.11.1,0,.19,0,.29,0,.28.03.54.15.78.27.43.22.85.43,1.31.58.27.09.54.21.8.32.35.15.67.37.94.64.32.31.47.7.51,1.14,0,.1,0,.2,0,.31-.01,0-.02,0-.03,0-.03-.33-.08-.65-.24-.94-.11-.2-.25-.39-.45-.51,0,0-.01-.02-.02-.02-.4-.32-.87-.49-1.35-.65-.43-.14-.87-.26-1.28-.47-.25-.12-.52-.22-.79-.32-.18-.06-.36-.07-.56-.04.02.07.03.12.04.18.1.4.16.81.15,1.22,0,.24-.04.48-.18.69-.13.2-.27.39-.41.58-.06.08-.09.17-.11.27-.04.25-.07.5-.14.74-.16.57-.35,1.13-.52,1.69-.06.19-.13.38-.14.58-.01.25.09.52.34.64.18.08.36.12.56.09.45-.06.88-.2,1.27-.43.31-.16.58-.38.83-.63.26-.27.51-.55.77-.83.22-.24.47-.46.75-.64.24-.15.5-.23.79-.26.56-.06,1.09-.19,1.58-.49.61-.39,1.06-.91,1.34-1.57.19-.43.28-.88.25-1.36,0-.13-.04-.26-.06-.39,0-.02,0-.05,0-.07-.11-.45-.31-.86-.64-1.2-.59-.59-1.28-1.03-2.06-1.3-.55-.19-1.08-.41-1.59-.7-.33-.18-.64-.39-.89-.68-.02-.02-.04-.04-.07-.06,0,.03-.01.04,0,.05.06.33.15.66.28.97.28.72.72,1.31,1.34,1.78.41.31.88.48,1.39.51-.08,0-.17.02-.25.03-.51-.05-.96-.23-1.37-.53-.91-.67-1.44-1.58-1.69-2.67-.08-.33-.11-.67-.11-1.01,0-.51.13-1,.35-1.46.33-.67.75-1.28,1.29-1.81.67-.66,1.45-1.14,2.36-1.39.26-.07.53-.12.81-.13.09,0,.17-.02.26-.03.07,0,.13-.01.2-.02.04,0,.07,0,.11,0,.07,0,.13-.01.2-.02.04,0,.07,0,.11,0,.06,0,.11-.01.17-.02.05,0,.09,0,.14,0,.07,0,.13-.01.2-.02.06,0,.13,0,.19,0,.05,0,.09,0,.14,0,.24,0,.49,0,.73,0,.67.03,1.26.24,1.76.7.25.23.44.51.61.81.29.53.45,1.11.61,1.68.16.58.28,1.16.35,1.76.07.6.09,1.2.06,1.8,0,.16-.05.33-.07.49-.02.16-.04.31-.07.47-.1.46-.27.9-.51,1.3-.38.64-.63,1.32-.78,2.04-.12.53-.22,1.06-.34,1.59-.06.24-.14.48-.22.72-.08.24-.23.43-.4.62-.41.44-.9.79-1.39,1.13-.25.17-.5.32-.75.48-.01,0-.03,0-.04,0,.15-.12.3-.23.45-.35.48-.37.97-.74,1.38-1.19.14-.15.27-.32.39-.49.14-.21.19-.45.24-.69.07-.33.12-.67.17-1,.13-.76.24-1.52.52-2.24.1-.26.23-.52.36-.77.23-.42.38-.87.48-1.35.1-.5.13-1.01.11-1.52-.03-.58-.1-1.15-.22-1.72-.13-.62-.29-1.23-.5-1.82-.14-.39-.31-.76-.58-1.09-.35-.43-.78-.71-1.33-.78-.19-.03-.38-.04-.57-.06-.11-.04-.22-.03-.34,0Z"/>
        <path class="cls-10" d="m10.37,21.32c-.39.23-.82.37-1.27.43-.19.03-.38,0-.56-.09-.24-.12-.35-.38-.34-.64.01-.2.08-.39.14-.58.17-.56.36-1.12.52-1.69.07-.24.1-.49.14-.74.02-.1.05-.18.11-.27.14-.19.28-.38.41-.58.13-.21.17-.45.18-.69,0-.41-.05-.82-.15-1.22-.01-.06-.03-.11-.04-.18.2-.03.39-.02.56.04.27.1.53.19.79.32.41.2.85.32,1.28.47.48.16.95.33,1.35.65,0,0,.01.01.02.02,0,.21-.08.39-.22.54-.3.35-.66.62-1.08.81-.21.1-.4.21-.56.38-.19.21-.34.45-.46.71-.19.42-.29.87-.42,1.31-.09.33-.2.66-.38.95,0,.01,0,.04-.01.05Z"/>
        <path class="cls-10" d="m14.36,14.45c-.51-.04-.98-.21-1.39-.51-.62-.46-1.06-1.06-1.34-1.78-.13-.32-.22-.64-.28-.97,0-.01,0-.02,0-.05.03.03.05.04.07.06.25.29.56.5.89.68.51.28,1.04.5,1.59.7.79.28,1.48.71,2.06,1.3.33.34.53.75.64,1.2,0,.02,0,.05,0,.07-.07-.05-.14-.1-.21-.15-.13-.11-.27-.18-.42-.23-.22-.08-.45-.14-.68-.2-.12-.03-.25-.04-.37-.05-.05,0-.11-.02-.16-.03-.03,0-.07-.02-.1-.02-.1,0-.21,0-.32,0Z"/>
        <path class="cls-10" d="m11.41,9.62c.06-.22.15-.44.26-.64.03-.05.05-.08.11-.09.04,0,.08-.03.11-.05.38-.21.73-.15,1.06.09.26.19.45.44.61.71.12.2.22.42.32.63.02.07.01.15.1.19.09.07.09.18.1.27,0,.14,0,.28-.02.41-.02.15-.13.22-.28.2-.35-.05-.67-.18-.97-.37-.22-.14-.43-.28-.65-.43-.27-.19-.48-.43-.64-.72-.04-.07-.08-.13-.11-.2Z"/>
        <path class="cls-15" d="m17.99,12.49s.03-.02.04-.04c.02.05.04.09.05.14.04.17.07.34.1.51-.07-.21-.13-.41-.2-.62Z"/>
        <path class="cls-16" d="m14.36,14.45c.11,0,.21,0,.32,0,.03,0,.07.02.1.02-.17,0-.35.02-.52.03-.05,0-.1-.02-.15-.02.08,0,.17-.02.25-.03Z"/>
        <path class="cls-9" d="m15.59,3.01s.05-.02.08-.02c.2,0,.39,0,.59,0,.02,0,.04.01.06.02-.24,0-.49,0-.73,0Z"/>
        <path class="cls-11" d="m18.19,5.35c-.24,0-.49,0-.73,0,0,0,0-.01,0-.02.2,0,.4,0,.61,0,.04,0,.08.01.12.02Z"/>
        <path class="cls-13" d="m14.2,18.01s.02,0,.03,0c0,.08,0,.16.01.24-.01,0-.03,0-.04,0,0-.08,0-.17,0-.25Z"/>
        <path class="cls-18" d="m14.2,18.26s.03,0,.04,0c0,.08,0,.16,0,.27-.07-.1-.04-.19-.04-.27Z"/>
        <path class="cls-13" d="m13.98,10.46c-.09-.04-.08-.12-.1-.19.02,0,.03,0,.05,0,.02.07.04.13.05.2Z"/>
        <path class="cls-13" d="m17,20.94s.03,0,.04,0c-.05.03-.11.07-.16.1,0-.07.06-.1.12-.1Z"/>
        <path class="cls-21" d="m10.68,27.44c-.09,0-.19-.01-.28-.02.09,0,.19.01.28.02Z"/>
        <path class="cls-20" d="m11.32,27.41c-.09,0-.19.01-.28.02.09,0,.19-.01.28-.02Z"/>
        <path class="cls-13" d="m9.87,14.75c-.1,0-.19,0-.29,0,.1-.05.19-.03.29,0Z"/>
        <path class="cls-9" d="m16.4,3.01c.08,0,.17.01.25.02-.08,0-.17-.01-.25-.02Z"/>
        <path class="cls-19" d="m16.06,5.99c.07,0,.13-.01.2-.02-.07,0-.13.01-.2.02Z"/>
        <path class="cls-21" d="m16.2,5.44c-.07,0-.13.01-.2.02.07,0,.13-.01.2-.02Z"/>
        <path class="cls-21" d="m16.51,5.41c-.07,0-.13.01-.2.02.07,0,.13-.01.2-.02Z"/>
        <path class="cls-20" d="m17.12,5.36c-.07,0-.13.01-.2.02.07,0,.13-.01.2-.02Z"/>
        <path class="cls-21" d="m16.79,5.38c-.06,0-.11.01-.17.02.06,0,.11-.01.17-.02Z"/>
        <path class="cls-20" d="m12.27,8.25s-.07,0-.11,0c-.04,0-.04-.03-.01-.05.04.02.08.03.12.05Z"/>
        <path class="cls-14" d="m8.73,22.26s.09.01.14.02c-.05,0-.09-.01-.14-.02Z"/>
        <path class="cls-20" d="m17.46,5.33s0,.01,0,.02c-.05,0-.09,0-.14,0,.05,0,.1-.01.14-.02Z"/>
        <path class="cls-9" d="m9.17,22.27s.08-.01.12-.02c-.04,0-.08.01-.12.02Z"/>
        <path class="cls-8" d="m8.12,26.57s-.04-.04-.06-.06c.02.02.04.04.06.06Z"/>
        <path class="cls-15" d="m18.19,13.14s0,.03,0,.04c0-.01,0-.03,0-.04Z"/>
        <path class="cls-23" d="m17.57,5.88c.11-.03.22-.03.34,0-.11,0-.22,0-.34,0Z"/>
      </g>
    </g>
  </g>
</svg>