<?xml version="1.0" encoding="UTF-8"?>
<svg id="Layer_1" data-name="Layer 1" xmlns="http://www.w3.org/2000/svg" xmlns:xlink="http://www.w3.org/1999/xlink" viewBox="0 0 35 30.37">
  <defs>
    <style>
      .cls-1, .cls-2, .cls-3 {
        fill: none;
      }

      .cls-2 {
        clip-path: url(#clippath-1);
      }

      .cls-4 {
        fill: #ecdbdb;
      }

      .cls-5 {
        fill: #e8d4d3;
      }

      .cls-6 {
        fill: #e8adac;
      }

      .cls-7 {
        fill: #e49f9f;
      }

      .cls-8 {
        fill: #efc4c3;
      }

      .cls-9 {
        fill: #f1e2e2;
      }

      .cls-10 {
        fill: #f1e4e4;
      }

      .cls-11 {
        fill: #e5cece;
      }

      .cls-12 {
        fill: #e5cfce;
      }

      .cls-13 {
        fill: #985857;
      }

      .cls-14 {
        fill: #9f706f;
      }

      .cls-15 {
        fill: #8c2a29;
      }

      .cls-16 {
        fill: #b8b2b1;
      }

      .cls-17 {
        fill: #b77a79;
      }

      .cls-18 {
        fill: #c1c1c1;
      }

      .cls-19 {
        fill: #a88988;
      }

      .cls-20 {
        fill: #db8a89;
      }

      .cls-21 {
        fill: #c59493;
      }

      .cls-22 {
        fill: #d37a79;
      }

      .cls-23 {
        fill: #d4afae;
      }

      .cls-24 {
        fill: #e1c9c8;
      }

      .cls-25 {
        fill: #ab9594;
      }

      .cls-26 {
        fill: #a95f5e;
      }

      .cls-27 {
        fill: #9c6766;
      }

      .cls-28 {
        fill: #9b4544;
      }

      .cls-3 {
        clip-path: url(#clippath);
      }

      .cls-29 {
        fill: #95efea;
        opacity: .9;
      }
    </style>
    <clipPath id="clippath">
      <rect class="cls-1" x="4.79" y="2.21" width="27.12" height="25.69"/>
    </clipPath>
    <clipPath id="clippath-1">
      <rect class="cls-1" x="2.93" width="30.37" height="30.37"/>
    </clipPath>
  </defs>
  <g class="cls-3">
    <g>
      <polygon class="cls-29" points="19.66 3.73 7.43 24.92 31.89 24.92 19.66 3.73"/>
      <g class="cls-2">
        <g>
          <path class="cls-15" d="m15.4,24.84c-.19,0-.37,0-.56,0-.06,0-.13-.01-.19-.02h-.21s-.09,0-.13-.01c-.07,0-.15-.01-.22-.02-.21,0-.42-.04-.63-.08-.19-.04-.39-.07-.58-.11-.24-.06-.49-.12-.72-.2-.26-.08-.51-.16-.76-.27-.44-.2-.87-.42-1.28-.68-.72-.46-1.37-1.01-1.96-1.64-.78-.82-1.44-1.74-2.04-2.69-.44-.71-.87-1.42-1.3-2.14-.46-.78-.92-1.56-1.43-2.3-.18-.26-.37-.52-.56-.78,0,0-.02,0-.03,0,0,.05,0,.11,0,.16,0,1.43,0,2.86,0,4.28,0,1.46,0,2.92,0,4.38,0,.04,0,.09,0,.13,0,0,.01.02.02.02.2.02.4.03.6-.02.93-.06,1.79-.35,2.57-.87,0,0,.01-.01.02-.02,0-.05,0-.1.01-.14,0-.5,0-.99,0-1.49.02,0,.03,0,.05,0,.22.31.43.62.65.92.41.56.85,1.09,1.35,1.57.01.01.02.03.05.05-.15.13-.3.25-.45.37-.64.5-1.35.9-2.12,1.17-.41.14-.82.25-1.25.31-.2.03-.4.05-.61.08-.06,0-.12,0-.18,0-.02,0-.04,0-.06.01-.32,0-.64,0-.96,0-.1,0-.2-.01-.3-.02-.31,0-.61-.04-.91-.1-.15-.03-.3-.06-.45-.08-.31-.06-.54-.23-.69-.5-.14-.25-.16-.51-.08-.77.13-.39.41-.63.82-.69.08,0,.16,0,.25,0,.12.02.25.04.37.06.04.02.07.05.11,0,0-.05,0-.1,0-.15,0-2.47,0-4.94,0-7.41,0-.82,0-1.64,0-2.46,0-.04,0-.09,0-.13,0,0-.01-.01-.02-.02-.31-.29-.66-.53-1.02-.75-.15-.09-.28-.19-.38-.34C.05,11.3,0,11.12,0,10.91c0-.55.45-1,1-.99.18,0,.35.05.5.14.54.32,1.03.69,1.49,1.1.8.73,1.48,1.57,2.09,2.46.52.76,1,1.55,1.47,2.35.14.24.27.48.41.71.33.54.65,1.08.99,1.6.45.7.94,1.37,1.5,1.99.5.55,1.04,1.07,1.67,1.47.22.14.46.26.69.38.29.16.6.28.92.38.34.1.68.2,1.04.24.14.02.28.04.42.05.06,0,.11.01.17.02.03,0,.07,0,.1,0,.08.02.16.05.24,0,0,0,0-.02,0-.03,0-.05,0-.1,0-.15,0-2.6,0-5.21,0-7.81,0-.48,0-.96,0-1.45,0-.01,0-.02,0-.04-.01.01-.03.02-.04.03-.41.47-.77.98-1.12,1.5-.65.99-1.22,2.03-1.81,3.06,0,0,0,.02-.01.02-.07.13-.17.26-.21.4-.04.14-.01.29-.01.44,0,.74,0,1.47,0,2.21-.02,0-.03,0-.05,0-.33-.21-.62-.47-.9-.73-.54-.5-1.02-1.05-1.46-1.63-.02-.02-.03-.05-.05-.08.14-.23.28-.45.41-.68.44-.76.88-1.52,1.31-2.28.55-.96,1.13-1.9,1.79-2.79.38-.5.79-.98,1.23-1.43.64-.63,1.35-1.17,2.16-1.56.47-.23.95-.4,1.46-.53.39-.1.77-.21,1.16-.28.18-.03.36-.05.54-.06.17-.02.34-.02.5-.03.21,0,.41,0,.62,0,.07,0,.14,0,.21,0,.1,0,.2.01.3.02.21.03.43.07.64.08.31.02.61.1.9.17.86.2,1.67.53,2.43.98.72.43,1.34.99,1.93,1.58.58.6,1.13,1.23,1.61,1.91.35.49.67.99.98,1.5.59.95,1.16,1.92,1.76,2.87.35.56.73,1.11,1.1,1.66.02.04.05.07.08.11.01.02.02.03.05.06v-.07s0-.09,0-.13c0-2.89,0-5.77,0-8.66,0-.04,0-.08,0-.12,0,0-.02-.03-.02-.03-.14,0-.28,0-.43.01-.06,0-.12,0-.18,0-.06,0-.13.01-.19.02-.83.08-1.59.36-2.3.8-.07.05-.1.09-.1.18,0,.47,0,.95,0,1.42,0,.05,0,.11-.01.16,0,0-.02,0-.03,0-.34-.44-.66-.89-1.01-1.31-.35-.42-.73-.82-1.1-1.23,1.28-1.16,2.77-1.86,4.52-1.99.07,0,.15-.01.22-.02.13,0,.27,0,.4,0h.11c.13,0,.27,0,.4,0,.11,0,.22.01.33.02.22.03.44.06.66.08.07,0,.15.02.22.03.2.03.41.06.61.11.26.07.46.23.57.48.04.09.09.18.11.28.1.47-.2,1-.71,1.13-.04.01-.09.02-.13.03-.09,0-.18,0-.27,0-.15-.03-.3-.05-.47-.08,0,.05,0,.1,0,.15,0,1.28,0,2.56,0,3.84,0,2.01,0,4.03,0,6.04,0,.1.03.17.11.24.29.24.6.47.92.66.11.07.22.14.31.24.27.32.34.68.17,1.07-.17.39-.5.58-.92.59-.18,0-.35-.06-.5-.15-.57-.33-1.1-.73-1.58-1.19-.84-.78-1.53-1.68-2.17-2.62-.41-.61-.8-1.24-1.17-1.87-.4-.67-.8-1.35-1.21-2.02-.33-.54-.66-1.09-1.04-1.61-.66-.89-1.43-1.66-2.35-2.28-.34-.23-.71-.43-1.09-.59-.26-.11-.53-.2-.81-.29-.23-.07-.47-.11-.7-.16-.13-.03-.27-.05-.4-.08-.1-.02-.21-.02-.32-.04-.08,0-.16-.01-.25-.02h-.12s0,.08,0,.12c0,.71,0,1.42,0,2.13,0,1.27,0,2.54,0,3.82,0,1.09,0,2.19,0,3.28,0,.04,0,.08,0,.12.01,0,.02,0,.03,0,.83-.97,1.49-2.05,2.12-3.15.33-.58.66-1.16,1-1.74.05-.08.07-.16.06-.25,0-.79,0-1.57,0-2.36,0-.05,0-.1,0-.15.5.16,2.11,1.71,2.49,2.4-.06.1-.13.21-.2.32-.51.89-1.03,1.78-1.54,2.66-.54.93-1.1,1.85-1.74,2.71-.48.64-.99,1.24-1.58,1.78-.72.65-1.51,1.18-2.41,1.54-.37.15-.75.25-1.14.35-.35.09-.69.17-1.04.24-.19.04-.39.04-.59.06-.08,0-.16,0-.24,0-.04,0-.07,0-.11.01Zm3.67-3.24s.01-.01.02-.02c0-.05,0-.11,0-.16,0-1.57,0-3.13,0-4.7,0-1.87,0-3.73,0-5.6,0-.04,0-.08,0-.12,0,0-.01-.02-.02-.02-.11.02-.22.03-.32.05-.18.03-.36.06-.54.09-.28.06-.55.18-.82.28-.49.18-.95.43-1.38.73-.09.06-.12.13-.12.23,0,1,0,2.01,0,3.01,0,2.43,0,4.87,0,7.3,0,.03,0,.06,0,.09,0,.02,0,.03.01.06.08-.01.15-.02.22-.03.49-.07.97-.21,1.43-.38.54-.19,1.04-.46,1.5-.81Z"/>
          <path class="cls-6" d="m20.2,8.96c-.21,0-.41,0-.62,0,.06,0,.11-.02.17-.02.15,0,.3.01.46.02Z"/>
          <path class="cls-20" d="m3.42,22.87c-.2.04-.4.03-.6.02,0,0-.01-.01-.02-.02.21,0,.41,0,.62,0Z"/>
          <path class="cls-25" d="m31.74,10.91c.14,0,.28-.01.43-.01,0,0,.02.02.02.03-.15,0-.3,0-.45-.01Z"/>
          <path class="cls-20" d="m32.8,8.96c-.11,0-.22-.01-.33-.02.11,0,.22.01.33.02Z"/>
          <path class="cls-20" d="m20.71,8.99c-.1,0-.2-.01-.3-.02.1,0,.2.01.3.02Z"/>
          <path class="cls-19" d="m2.19,24.82c.1,0,.2.01.3.02-.1,0-.2-.01-.3-.02Z"/>
          <path class="cls-18" d="m33.86,11.11c.09,0,.18,0,.27,0-.09.04-.18.04-.27,0Z"/>
          <path class="cls-25" d="m20.41,10.95c.08,0,.16.01.25.02-.08,0-.16-.01-.25-.02Z"/>
          <path class="cls-16" d="m15.51,24.83c.08,0,.16,0,.24,0-.08,0-.16.01-.25.02,0,0,0-.01,0-.02Z"/>
          <path class="cls-22" d="m14.7,22.84c-.08.06-.16.03-.24,0,.07,0,.14,0,.22,0,0,0,.01,0,.01,0h.01Z"/>
          <path class="cls-7" d="m1.12,22.67c-.08,0-.16,0-.25,0,.08-.03.16-.04.25,0Z"/>
          <path class="cls-25" d="m14.09,24.8c.07,0,.15.01.22.02-.07,0-.15-.01-.22-.02Z"/>
          <path class="cls-7" d="m31.56,8.94c-.07,0-.15.01-.22.02.07,0,.15-.01.22-.02Z"/>
          <path class="cls-18" d="m14.43,24.83c.07,0,.14,0,.21,0,0,0,0,.01,0,.02-.07,0-.15-.01-.22-.02Z"/>
          <path class="cls-19" d="m31.37,10.94c.06,0,.13-.01.19-.02-.06,0-.13.01-.19.02Z"/>
          <path class="cls-18" d="m3.51,24.83c.06,0,.12,0,.18,0-.06,0-.13.01-.19.02,0,0,0-.01,0-.02Z"/>
          <path class="cls-14" d="m14.65,24.85s0-.01,0-.02c.06,0,.13.01.19.02-.06,0-.12,0-.19,0Z"/>
          <path class="cls-20" d="m14.36,22.84c-.06,0-.11-.01-.17-.02.06,0,.11.01.17.02Z"/>
          <path class="cls-8" d="m32.07,8.93s-.07,0-.11,0c.04,0,.07,0,.11,0Z"/>
          <path class="cls-4" d="m1.59,22.73c-.03.05-.07.03-.11,0,.04,0,.07,0,.11,0Z"/>
          <path class="cls-27" d="m15.51,24.83s0,.01,0,.02c-.04,0-.07,0-.11,0,.04,0,.07,0,.11-.01Z"/>
          <path class="cls-11" d="m32.2,19.84v.07s-.04-.05-.05-.06c.02,0,.03,0,.05,0Z"/>
          <path class="cls-28" d="m6.07,20.35s-.03,0-.05,0v-.08s.03.06.05.08Z"/>
          <path class="cls-5" d="m14.65,13.41s.03-.02.04-.03c0,.01,0,.02,0,.04-.01,0-.03,0-.04,0Z"/>
          <path class="cls-26" d="m11.43,21.05s.03,0,.05,0c0,.01,0,.02-.01.03-.01,0-.03-.02-.04-.02Z"/>
          <path class="cls-13" d="m3.51,24.83s0,.01,0,.02c-.02,0-.03,0-.05,0,.02,0,.04,0,.06-.01Z"/>
          <path class="cls-17" d="m2.8,13.91s.02,0,.03,0c0,0-.02,0-.03,0Z"/>
          <path class="cls-21" d="m28.94,13.49s.02,0,.03,0c0,0-.02,0-.03,0Z"/>
          <path class="cls-9" d="m6.01,21.98s-.01.01-.02.02c0,0,0-.02.02-.02Z"/>
          <path class="cls-10" d="m14.7,22.84h-.01s-.01,0-.01,0c0,0,.02-.02.02-.03,0,0,0,.02,0,.03Z"/>
          <path class="cls-24" d="m1.57,12.56s.01.01.02.02c0,0-.01-.01-.02-.02Z"/>
          <path class="cls-17" d="m20.33,20.4s-.02,0-.03,0c.01,0,.02,0,.03,0Z"/>
          <path class="cls-12" d="m19.07,21.6l.02-.02s-.01.01-.02.02Z"/>
          <path class="cls-23" d="m19.09,11s-.01-.02-.02-.02c0,0,.01.02.02.02Z"/>
        </g>
      </g>
    </g>
  </g>
</svg>