<?xml version="1.0" encoding="UTF-8"?>
<svg id="Layer_2" data-name="Layer 2" xmlns="http://www.w3.org/2000/svg" xmlns:xlink="http://www.w3.org/1999/xlink" viewBox="0 0 35 30.37">
  <defs>
    <style>
      .cls-1, .cls-2 {
        fill: none;
      }

      .cls-3 {
        fill: #95efea;
      }

      .cls-4 {
        fill: #8d2a29;
      }

      .cls-2 {
        clip-path: url(#clippath);
      }
    </style>
    <clipPath id="clippath">
      <rect class="cls-1" x="4.79" y="2.21" width="27.12" height="25.69"/>
    </clipPath>
  </defs>
  <g class="cls-2">
    <g>
      <rect class="cls-3" x="4.23" y="3.25" width="20.36" height="23.91"/>
      <g>
        <path class="cls-4" d="m18.61,26.92c-.23-.03-.45-.06-.68-.09-.19-.03-.38-.05-.56-.09-.42-.11-.84-.23-1.25-.37-1.23-.42-2.35-1.05-3.36-1.87-.97-.79-1.78-1.71-2.43-2.77-.65-1.06-1.11-2.19-1.38-3.4-.07-.3-.12-.6-.16-.9-.03-.2-.04-.41-.07-.61,0-.02,0-.04,0-.06,0-.38-.03-.76-.03-1.15,0-.68.1-1.35.24-2.01.36-1.66,1.06-3.16,2.11-4.5.91-1.16,2.01-2.1,3.3-2.82.95-.53,1.96-.91,3.03-1.15.42-.09.84-.17,1.27-.19.19-.01.39-.04.58-.05.01,0,.02,0,.03,0,.31,0,.63,0,.94,0,.01,0,.02,0,.03,0,2.71.16,5.08,1.13,7.06,2.99,1.98,1.86,3.11,4.17,3.42,6.87,0,.02,0,.04,0,.06l.02.24s0,.04,0,.06c0,.38.03.76.02,1.13-.01.39-.04.78-.09,1.17-.12.93-.36,1.83-.72,2.7-.5,1.21-1.19,2.3-2.08,3.27-.95,1.04-2.07,1.87-3.34,2.49-.91.44-1.87.76-2.87.92-.27.04-.54.08-.81.12-.01,0-.02,0-.03,0-.1,0-.19.02-.29.03-.02,0-.04,0-.06,0-.49.04-.98.04-1.47,0-.02,0-.04,0-.06,0-.1,0-.19-.02-.29-.03-.01,0-.02,0-.03,0Zm1.62-20.4c-.85-.04-1.68.02-2.51.2-1.01.22-1.97.6-2.85,1.13-.86.51-1.61,1.15-2.26,1.91-.65.75-1.17,1.59-1.56,2.51-.29.68-.5,1.38-.61,2.11-.05.35-.1.71-.12,1.07-.03.51-.02,1.03.05,1.54.06.48.15.96.27,1.43.27.99.69,1.91,1.26,2.76.47.71,1.04,1.34,1.68,1.9.53.46,1.1.85,1.72,1.18.66.35,1.35.62,2.08.81.24.06.49.13.74.17.21.04.42.05.64.07.2.02.41.05.62.05.36,0,.73-.01,1.09-.02.38-.01.76-.08,1.13-.15.5-.1.98-.24,1.45-.41,1.12-.42,2.12-1.03,3.01-1.83.53-.48,1.01-1.01,1.42-1.61.79-1.16,1.34-2.41,1.55-3.81.04-.26.09-.51.11-.77.06-.59.05-1.18,0-1.76-.09-.91-.31-1.78-.66-2.63-.4-.99-.96-1.89-1.67-2.68-.77-.86-1.66-1.57-2.68-2.1-.99-.51-2.03-.87-3.15-.98-.1,0-.19-.02-.29-.03-.14-.02-.27-.03-.41-.05-.01,0-.02,0-.03,0Z"/>
        <path class="cls-4" d="m29.56,7.75c-.09,0-.17,0-.26,0-.14,0-.27,0-.41,0-.12,0-.24.01-.36.02-.07,0-.13,0-.2,0-.18,0-.35,0-.53,0,.11-.13.23-.25.34-.38.1-.11.2-.21.31-.33-.07-.06-.13-.12-.2-.17-.78-.62-1.62-1.15-2.52-1.59-.32-.16-.66-.29-.99-.42-.29-.11-.57-.23-.87-.32-.34-.1-.68-.19-1.02-.27-.27-.07-.55-.12-.83-.17-.16-.03-.32-.04-.49-.06-.15-.02-.3-.04-.44-.06-.08,0-.16-.02-.24-.03-.03,0-.06,0-.08,0-.14,0-.28-.02-.42-.03-.05,0-.1,0-.14,0-.02,0-.04-.02-.07-.02-.26,0-.52,0-.78,0-.02,0-.05.01-.07.02-.11,0-.21,0-.32,0-.08,0-.16.01-.24.02-.05,0-.09,0-.14,0-.08,0-.16.02-.24.02-.22.03-.43.07-.65.09-.43.04-.84.14-1.26.24-.78.19-1.54.45-2.28.78-.62.28-1.21.6-1.78.96-.04.02-.07.04-.12.07-.18-.28-.36-.55-.55-.84,2.22-1.43,4.63-2.21,7.26-2.36.1,0,.19,0,.29,0,.16,0,.32,0,.48,0,.16,0,.32,0,.48,0,.09,0,.17,0,.26,0,.19.01.37.03.56.04.07,0,.14.01.21.02.21.03.43.06.64.09.2.03.4.05.6.09.2.04.39.08.59.12.27.06.54.13.81.21.25.07.49.17.74.25.22.08.45.15.67.24,1.01.41,1.97.92,2.86,1.56.3.21.59.44.88.66.13.1.12.1.24-.02.19-.2.38-.4.57-.61,0,.03.02.04.02.06.02.64.04,1.28.06,1.93,0,.03,0,.07,0,.1,0,0-.02.02-.03.02-.11,0-.22.02-.32.03Z"/>
        <path class="cls-4" d="m20.21,2.94c-.16,0-.32,0-.48,0-.16,0-.32,0-.48,0,0,0,0-.01,0-.02.31,0,.63,0,.94,0,0,0,0,.01,0,.02Z"/>
        <path class="cls-4" d="m19.29,3.95s.05-.02.07-.02c.26,0,.52,0,.78,0,.02,0,.05.01.07.02-.31,0-.61,0-.92,0Z"/>
        <path class="cls-4" d="m27.8,7.78c.18,0,.35,0,.53,0-.18.03-.35.05-.53,0Z"/>
        <path class="cls-4" d="m28.89,7.76c.14,0,.27,0,.41,0-.14,0-.28.02-.42.02,0,0,0-.01,0-.02Z"/>
        <path class="cls-4" d="m20.35,3.95c.14,0,.28.02.42.03-.14,0-.28-.02-.42-.03Z"/>
        <path class="cls-4" d="m28.89,7.76s0,.01,0,.02c-.12,0-.24,0-.35,0,.12,0,.24-.01.36-.02Z"/>
        <path class="cls-4" d="m29.56,7.75c.11,0,.22-.02.32-.03,0,0,.02,0,.03,0-.11.05-.23.03-.35.02Z"/>
        <path class="cls-4" d="m19.26,2.93s0,.01,0,.02c-.1,0-.19,0-.29,0,.1,0,.2-.01.3-.02Z"/>
        <path class="cls-4" d="m20.21,2.94s0-.01,0-.02c.09,0,.18.01.27.02-.09,0-.17,0-.26,0Z"/>
        <path class="cls-4" d="m18.73,3.98c.08,0,.16-.01.24-.02-.08,0-.16.01-.24.02Z"/>
        <path class="cls-4" d="m18.35,4.01c.08,0,.16-.02.24-.02-.08,0-.16.02-.24.02Z"/>
        <path class="cls-4" d="m20.85,3.98c.08,0,.16.02.24.03-.08,0-.16-.02-.24-.03Z"/>
        <path class="cls-4" d="m21.24,3.01c-.07,0-.14-.01-.21-.02.07,0,.14.01.21.02Z"/>
        <path class="cls-4" d="m30.74,15.11s0-.04,0-.06c0,.02,0,.04,0,.06Z"/>
        <path class="cls-4" d="m8.72,16.76s0,.04,0,.06c0-.02,0-.04,0-.06Z"/>
        <path class="cls-4" d="m30.72,14.82s0-.04,0-.06c0,.02,0,.04,0,.06Z"/>
        <path class="cls-4" d="m18.94,26.95s.04,0,.06,0c-.02,0-.04,0-.06,0Z"/>
        <path class="cls-4" d="m20.47,26.95s.04,0,.06,0c-.02,0-.04,0-.06,0Z"/>
        <path class="cls-4" d="m20.24,4.9s-.02,0-.03,0c.01,0,.02,0,.03,0Z"/>
        <path class="cls-4" d="m19.26,4.9s-.02,0-.03,0c.01,0,.02,0,.03,0Z"/>
        <path class="cls-4" d="m29.92,7.72s-.02,0-.03,0c0,0,.02-.02.03-.02,0,0,0,.02,0,.03Z"/>
        <path class="cls-4" d="m18.61,26.92s.02,0,.03,0c-.01,0-.02,0-.03,0Z"/>
        <path class="cls-4" d="m20.82,26.92s.02,0,.03,0c-.01,0-.02,0-.03,0Z"/>
        <path class="cls-4" d="m22.41,16.2c.2,0,.39,0,.59,0,.35,0,.69,0,1.04,0,.03,0,.05-.02.08-.02.18,0,.35,0,.53-.01.02,0,.04,0,.06,0,.02,0,.04,0,.06,0,.03,0,.06-.01.08-.02.13-.04.18-.15.18-.25,0-.12-.04-.25-.2-.28-.04,0-.08-.03-.12-.03-.22,0-.45,0-.67,0-.18,0-.36.01-.54.02-.22,0-.45,0-.67.01-.37,0-.75,0-1.12,0-.2,0-.39,0-.59,0-.12,0-.24.01-.36.02-.07,0-.13,0-.2,0-.02,0-.03-.02-.05-.03-.12-.26-.32-.42-.59-.49,0-.04,0-.09,0-.13,0-1.77,0-3.54,0-5.31,0-.04,0-.09,0-.13,0-.2-.1-.29-.29-.29-.18,0-.27.09-.28.28,0,.03,0,.06,0,.09,0,1.8,0,3.6,0,5.4,0,.06,0,.12,0,.18-.45.22-.61.84-.25,1.28.12.15.28.24.47.29.12.05.24.05.35,0,.11-.05.22-.09.33-.16.14-.09.22-.23.29-.37.26,0,.53,0,.79,0,.04,0,.08-.02.12-.02.16,0,.31,0,.47-.01.17,0,.33,0,.5,0Zm-2.76,7.16s-.04.02-.05.03c0,.4,0,.81,0,1.21,0,.04.02.07.03.11.01,0,.02,0,.03,0,.08,0,.15,0,.23,0,.01,0,.02,0,.03,0,0-.44,0-.88,0-1.33-.01,0-.02-.02-.03-.03-.08,0-.16,0-.23,0Zm-8.66-7.57s-.02.02-.03.03c0,.1,0,.2,0,.29.01,0,.02,0,.03,0h1.32v-.29s-.04-.02-.06-.03c-.42,0-.84,0-1.26,0Zm17.52-.03s-.02-.02-.03-.03h-1.32c0,.12-.03.22.02.32h1.29s.02,0,.03,0c0-.1,0-.2,0-.29Zm-8.69-7.25s.02-.02.03-.03c0-.22,0-.44,0-.66,0-.22,0-.44,0-.66h-.31v1.34c.1,0,.19,0,.28,0Zm3.74,1.05c.23-.39.45-.78.68-1.18-.1-.05-.18-.1-.26-.14-.11.11-.66,1.05-.68,1.18.08.04.16.09.26.14Zm-8.34,13.91c.1.06.19.1.29.16.23-.4.45-.78.68-1.18-.1-.05-.19-.1-.29-.15-.23.4-.45.78-.68,1.17Zm-1.85-11.38c-.4-.23-.78-.45-1.17-.68-.06.1-.1.19-.16.28.4.23.78.45,1.18.68.05-.1.1-.19.15-.29Zm12.75,7.66s.05.05.08.06c.32.19.65.38.97.57.09.05.12.04.17-.05.03-.05.06-.1.09-.17-.39-.23-.78-.45-1.18-.68-.05.1-.1.19-.14.28Zm-9.97-10.32c-.11-.2-.22-.38-.32-.56-.1-.18-.21-.35-.31-.53-.03-.05-.06-.09-.11-.06-.07.04-.14.08-.22.13.22.4.44.78.67,1.16.1-.06.19-.1.28-.15Zm7.2,13c.21.4.44.78.67,1.16.11-.05.2-.08.27-.17-.23-.38-.43-.78-.67-1.15-.09.05-.17.1-.27.16Zm4.06-10.77c-.04-.07-.06-.12-.09-.17-.07-.1-.08-.11-.18-.05-.17.09-.33.19-.5.28-.16.09-.32.19-.48.28-.04.02-.08.06-.05.1.04.07.08.14.14.22.39-.23.77-.44,1.16-.67Zm-15.19,8.83c.4-.23.79-.44,1.17-.68-.05-.1-.07-.2-.17-.27-.38.22-.76.44-1.15.66.05.1.1.18.15.28Z"/>
        <path class="cls-4" d="m20.27,6.52s-.02,0-.03,0c.01,0,.02,0,.03,0Z"/>
        <path class="cls-4" d="m19.34,15.2c0-.06,0-.12,0-.18,0-1.8,0-3.6,0-5.4,0-.03,0-.06,0-.09,0-.19.1-.28.28-.28.19,0,.28.09.29.29,0,.04,0,.09,0,.13,0,1.77,0,3.54,0,5.31,0,.04,0,.09,0,.13,0,.06-.01.12-.02.19h-.54s-.01-.08-.02-.11Z"/>
        <path class="cls-4" d="m21.91,16.19c-.16,0-.31,0-.47.01-.31,0-.61,0-.92,0-.06,0-.11,0-.17,0,0-.05,0-.08-.01-.11,0-.09,0-.18,0-.27,0-.05-.01-.1-.02-.15.02-.01.03-.02.04-.02.05,0,.1,0,.14-.01.02,0,.03,0,.05,0,.07,0,.13,0,.2,0,.12,0,.24,0,.35,0,.2,0,.39,0,.59,0,.35,0,.7,0,1.05,0,.02,0,.05-.01.07-.02.22,0,.45,0,.67-.01.18,0,.35,0,.53,0,.27,0,.53,0,.8,0,.16.03.19.16.2.28,0,.11-.05.21-.18.25-.03,0-.06.01-.08.02-.02,0-.04,0-.06,0-.02,0-.04,0-.06,0-.18,0-.35,0-.53.01-.37,0-.74,0-1.12,0-.2,0-.39,0-.59,0-.17,0-.34.01-.5.02Z"/>
        <path class="cls-4" d="m20.35,16.09s0,.06.01.11c.06,0,.11,0,.17,0,0,0,0,.02,0,.02-.07.14-.15.29-.29.37-.1.06-.22.1-.33.16-.12,0-.24,0-.35,0-.18-.05-.35-.14-.47-.29-.36-.44-.19-1.06.25-1.28,0,.03.01.07.02.11h.54c0-.07.01-.13.02-.19.27.07.47.24.59.49,0,0,0,.02,0,.03-.05,0-.1,0-.14.01,0,0-.02,0-.04.02,0,.05.01.1.02.15-.02,0-.03,0-.05,0-.11-.32-.3-.46-.62-.45-.25,0-.57.25-.53.62.04.35.36.59.68.52.24-.05.39-.2.46-.42.02,0,.03,0,.05,0Z"/>
        <path class="cls-4" d="m23.56,9.57c-.09-.05-.18-.1-.26-.14.02-.12.57-1.07.68-1.18.08.04.17.09.26.14-.23.4-.45.78-.68,1.18Z"/>
        <path class="cls-4" d="m15.22,23.48c.23-.39.45-.78.68-1.17.1.05.19.1.29.15-.23.4-.45.78-.68,1.18-.1-.05-.19-.1-.29-.16Z"/>
        <path class="cls-4" d="m13.36,12.1c-.05.1-.1.19-.15.29-.4-.23-.78-.45-1.18-.68.05-.1.1-.18.16-.28.39.23.77.44,1.17.68Z"/>
        <path class="cls-4" d="m26.11,19.76c.05-.09.09-.17.14-.28.4.23.78.45,1.18.68-.04.07-.06.12-.09.17-.06.1-.08.11-.17.05-.33-.19-.65-.38-.97-.57-.02-.01-.05-.03-.08-.06Z"/>
        <path class="cls-4" d="m16.14,9.44c-.1.05-.18.1-.28.15-.23-.38-.45-.77-.67-1.16.08-.05.15-.1.22-.13.06-.03.09.01.11.06.1.18.21.35.31.53.1.18.2.36.32.56Z"/>
        <path class="cls-4" d="m23.34,22.43c.1-.06.18-.11.27-.16.24.38.44.77.67,1.15-.07.09-.16.13-.27.17-.23-.38-.45-.76-.67-1.16Z"/>
        <path class="cls-4" d="m27.4,11.66c-.4.23-.77.45-1.16.67-.05-.08-.1-.15-.14-.22-.03-.05,0-.08.05-.1.16-.09.32-.19.48-.28.16-.1.33-.19.5-.28.11-.06.12-.06.18.05.03.05.05.1.09.17Z"/>
        <path class="cls-4" d="m12.21,20.49c-.05-.1-.1-.18-.15-.28.39-.23.77-.44,1.15-.66.1.07.12.17.17.27-.38.23-.77.45-1.17.68Z"/>
        <path class="cls-4" d="m19.82,8.51h-.28v-1.34h.31c0,.22,0,.44,0,.66,0,.22,0,.44,0,.66-.01,0-.02.02-.03.03Z"/>
        <path class="cls-4" d="m28.48,16.06h-1.29c-.05-.11-.02-.21-.02-.32.45,0,.88,0,1.32,0,.01,0,.02.02.03.03,0,.1,0,.2,0,.29-.01,0-.02,0-.03,0Z"/>
        <path class="cls-4" d="m10.96,16.11c0-.1,0-.2,0-.29.01,0,.02-.02.03-.03.42,0,.84,0,1.26,0,.02,0,.04.02.06.03v.29c-.45,0-.89,0-1.32,0-.01,0-.02,0-.03,0Z"/>
        <path class="cls-4" d="m19.61,24.71s-.03-.07-.03-.11c0-.4,0-.81,0-1.21.02,0,.04-.02.05-.03.08,0,.16,0,.23,0,.01,0,.02.02.03.03,0,.44,0,.88,0,1.33-.01,0-.02,0-.03,0-.08,0-.15,0-.23,0-.01,0-.02,0-.03,0Z"/>
        <path class="cls-4" d="m23,16.18c.37,0,.74,0,1.12,0-.03,0-.05.02-.08.02-.35,0-.69,0-1.04,0,0,0,0-.01,0-.02Z"/>
        <path class="cls-4" d="m22.83,15.61s-.05.02-.07.02c-.35,0-.7,0-1.05,0,0,0,0-.01,0-.02.37,0,.75,0,1.12,0Z"/>
        <path class="cls-4" d="m20.53,16.23s0-.02,0-.02c.31,0,.61,0,.92,0-.04,0-.08.02-.12.02-.26,0-.53,0-.79,0Z"/>
        <path class="cls-4" d="m24.83,15.61c-.27,0-.53,0-.8,0,0,0,0-.01,0-.02.22,0,.45,0,.67,0,.04,0,.08.02.12.03Z"/>
        <path class="cls-4" d="m21.71,15.62s0,.01,0,.02c-.2,0-.39,0-.59,0,0,0,0-.01,0-.02.2,0,.39,0,.59,0Z"/>
        <path class="cls-4" d="m23,16.18s0,.01,0,.02c-.2,0-.39,0-.59,0,0,0,0-.01,0-.02.2,0,.39,0,.59,0Z"/>
        <path class="cls-4" d="m24.04,15.59s0,.01,0,.02c-.18,0-.35,0-.53,0,.18,0,.36-.01.54-.02Z"/>
        <path class="cls-4" d="m22.42,16.18s0,.01,0,.02c-.17,0-.33,0-.5,0,.17,0,.34-.01.5-.02Z"/>
        <path class="cls-4" d="m21.12,15.62s0,.01,0,.02c-.12,0-.24,0-.35,0,.12,0,.24-.01.36-.02Z"/>
        <path class="cls-4" d="m19.56,16.76c.12,0,.24,0,.35,0-.12.05-.24.05-.35,0Z"/>
        <path class="cls-4" d="m24.77,16.16s.06-.01.08-.02c-.03,0-.06.01-.08.02Z"/>
        <path class="cls-4" d="m24.65,16.16s.04,0,.06,0c-.02,0-.04,0-.06,0Z"/>
        <path class="cls-4" d="m12.31,15.82s-.04-.02-.06-.03c.02,0,.04.02.06.03Z"/>
        <path class="cls-4" d="m19.65,23.36s-.04.02-.05.03c.02,0,.04-.02.05-.03Z"/>
        <path class="cls-4" d="m20.51,15.64s0-.02,0-.03c.02,0,.03.02.05.03-.02,0-.03,0-.05,0Z"/>
        <path class="cls-4" d="m10.96,16.11s.02,0,.03,0c-.01,0-.02,0-.03,0Z"/>
        <path class="cls-4" d="m28.48,16.06s.02,0,.03,0c-.01,0-.02,0-.03,0Z"/>
        <path class="cls-4" d="m10.99,15.79s-.02.02-.03.03c.01,0,.02-.02.03-.03Z"/>
        <path class="cls-4" d="m28.51,15.76s-.02-.02-.03-.03c.01,0,.02.02.03.03Z"/>
        <path class="cls-4" d="m19.91,23.38s-.02-.02-.03-.03c.01,0,.02.02.03.03Z"/>
        <path class="cls-4" d="m19.61,24.71s.02,0,.03,0c-.01,0-.02,0-.03,0Z"/>
        <path class="cls-4" d="m19.82,8.51s.02-.02.03-.03c-.01,0-.02.02-.03.03Z"/>
        <path class="cls-4" d="m19.88,24.71s.02,0,.03,0c-.01,0-.02,0-.03,0Z"/>
        <path class="cls-4" d="m20.3,15.82s.03,0,.05,0c0,.09,0,.18,0,.27-.02,0-.03,0-.05,0,0-.09,0-.18,0-.27Z"/>
        <path class="cls-4" d="m20.3,15.82c0,.09,0,.18,0,.27-.07.23-.22.37-.46.42-.32.07-.65-.17-.68-.52-.04-.37.28-.61.53-.62.32,0,.51.12.62.45Z"/>
      </g>
    </g>
  </g>
</svg>